<svg xmlns="http://www.w3.org/2000/svg" viewBox="0 0 100 100" width="100" height="100">
  <g fill="none" stroke="#D4AF37" stroke-width="2" stroke-linecap="round" stroke-linejoin="round">
    
    <path d="M 50,10 L 50,26" />
    <path d="M 45,15 L 55,15" />
    
    <path d="M 50,26 L 32,48 L 68,48 Z" />
    
    <path d="M 36,48 L 36,85 L 64,85 L 64,48" />
    
    <path d="M 36,60 L 24,66 L 24,85 L 36,85" />
    <path d="M 64,60 L 76,66 L 76,85 L 64,85" />
    
    <path d="M 44,85 L 44,72 A 6,6 0 0,1 56,72 L 56,85" />
    
    <path d="M 47,42 L 47,38 A 3,3 0 0,1 53,38 L 53,42 Z" />
    
    <path d="M 15,85 L 85,85" />
    
  </g>
</svg>
