<svg xmlns="http://www.w3.org/2000/svg" viewBox="0 0 100 100" width="100" height="100">
  <defs>
    <!-- 고급스러운 금빛 그라데이션 -->
    <linearGradient id="gold-grad" x1="0%" y1="0%" x2="100%" y2="100%">
      <stop offset="0%" stop-color="#FFEFA6" />
      <stop offset="40%" stop-color="#D4AF37" />
      <stop offset="70%" stop-color="#B8860B" />
      <stop offset="100%" stop-color="#684A04" />
    </linearGradient>
  </defs>

  <!-- 굵기와 볼륨감을 크게 보강한 높은음자리표 (G Clef) 드로잉 (시인성 극대화) -->
  <g transform="translate(2, 0)">
    <path d="M 44.5,86 C 39.5,86 35,82.5 35,76.5 C 35,70.5 40,66.5 46.5,66.5 C 51.5,66.5 55,69.5 55,74.5 C 55,79.5 51.5,82.5 46.5,82.5 C 45.2,82.5 44.2,82.2 43.5,81.8 C 44.5,83.5 46.8,84.5 49.5,84.5 C 53.5,84.5 56.5,82 57.5,77 C 58.8,70.5 55.5,58 50.5,43 L 46.2,29.5 C 36,41.5 30,52 30,62 C 30,75.5 39,83.5 50.5,83.5 C 64,83.5 73.5,72 73.5,56 C 73.5,35.5 57,21.5 42,30.5 C 40.5,31.4 39.2,32.5 38,33.8 C 39,32.2 40.5,30.8 42.2,29.8 C 55.5,21.5 70,33.5 70,52 C 70,66.5 61.5,77.5 50.5,77.5 C 41.5,77.5 36.5,71.5 36.5,63 C 36.5,52.5 43.5,39 53,24.5 C 53.5,19 54,13.5 56.5,8 C 58,4.5 60.5,4.5 61,8 C 61,15.5 56.5,30 52.2,44.5 L 56.8,59 C 62.5,70.5 63.5,79 61,83.5 C 58.5,85.2 55.5,86 52.2,86 C 48.5,86 46,86 44.5,86 Z
             M 53.5,17 C 53.5,18.8 53.2,21.5 53,24 L 55,30.5 C 58.2,21 60,14 59,12 C 58,10.2 55.5,10.8 54.2,12.5 C 53.8,13.8 53.5,15.2 53.5,17 Z" 
          fill="url(#gold-grad)" />
  </g>
</svg>
